<svg width="27" height="21" viewBox="0 0 27 21" xmlns="http://www.w3.org/2000/svg"><title>B70EDE52-E7EB-42A8-9FE6-AC52D4C249FA</title><path d="M23.554 5.23c.01.228.016.455.016.685C23.57 12.921 18.236 21 8.483 21 5.487 21 2.7 20.123.354 18.618c.416.047.838.073 1.265.073 2.486 0 4.77-.846 6.585-2.268a5.31 5.31 0 0 1-4.952-3.682 5.342 5.342 0 0 0 2.393-.092 5.308 5.308 0 0 1-4.253-5.197v-.067a5.302 5.302 0 0 0 2.403.663 5.3 5.3 0 0 1-2.359-4.414c0-.971.262-1.883.718-2.666a15.048 15.048 0 0 0 10.929 5.54A5.301 5.301 0 0 1 18.249 0c1.524 0 2.902.643 3.87 1.672A10.577 10.577 0 0 0 25.486.385a5.32 5.32 0 0 1-2.331 2.934 10.582 10.582 0 0 0 3.044-.833 10.76 10.76 0 0 1-2.645 2.745" fill="#666" fill-rule="evenodd"/></svg>