<?xml version="1.0" encoding="UTF-8" standalone="no"?><!DOCTYPE svg PUBLIC "-//W3C//DTD SVG 1.1//EN" "http://www.w3.org/Graphics/SVG/1.1/DTD/svg11.dtd"><svg xmlns="http://www.w3.org/2000/svg" xmlns:xlink="http://www.w3.org/1999/xlink"><symbol viewBox="0 0 12 22" id="arrow-blue-right" xmlns="http://www.w3.org/2000/svg"><title>4B5AC609-DE58-4707-92E4-6A6687200F8B</title><path d="M2 2l7.808 9L2 20" stroke-width="3" stroke="#64bcd3" fill="none" fill-rule="evenodd" stroke-linecap="round" stroke-linejoin="round"/></symbol><symbol viewBox="-11 9 22 12" id="arrow-down" xmlns="http://www.w3.org/2000/svg"><title>icon : arrow</title><path fill="none" d="M9 11l-9 7.8-9-7.8"/></symbol><symbol viewBox="0 0 43 92" id="arrow-left" xmlns="http://www.w3.org/2000/svg"><title>icon : arrow</title><path d="M41.174 90L3 46 41.174 2" stroke-width="4" fill="none" fill-rule="evenodd"/></symbol><symbol viewBox="0 0 12 22" id="arrow-right-brand" xmlns="http://www.w3.org/2000/svg"><title>4B5AC609-DE58-4707-92E4-6A6687200F8B</title><path d="M2 2l7.808 9L2 20" stroke-width="3" stroke="#546E98" fill="none" fill-rule="evenodd" stroke-linecap="round" stroke-linejoin="round"/></symbol><symbol viewBox="0 0 12 22" id="arrow-right-dark-blue" xmlns="http://www.w3.org/2000/svg"><title>icon : arrow</title><path d="M2 2l7.808 9L2 20" stroke-linecap="round" stroke-linejoin="round" stroke-width="3" stroke="#546e98" fill="none" fill-rule="evenodd"/></symbol><symbol viewBox="0 0 12 22" id="arrow-right-medium" xmlns="http://www.w3.org/2000/svg"><title>icon : arrow</title><path d="M2 2l7.808 9L2 20" stroke-linecap="round" stroke-linejoin="round" fill="none" fill-rule="evenodd"/></symbol><symbol viewBox="0 0 12 22" id="arrow-right-small" xmlns="http://www.w3.org/2000/svg"><title>icon : arrow</title><path d="M2 2l7.81 9.002L2 20.004" stroke-width="3" stroke-linecap="round" stroke-linejoin="round"/></symbol><symbol viewBox="0 0 22 12" id="arrow-up" xmlns="http://www.w3.org/2000/svg"><title>CEC12BEE-1EA1-4EBF-AC28-5309D275FB56</title><path d="M2 10l9-7.808L20 10" stroke-width="3" fill-rule="evenodd" stroke-linecap="round" stroke-linejoin="round"/></symbol><symbol viewBox="0 0 32 33" id="call" xmlns="http://www.w3.org/2000/svg"><title>01B2CB42-6F9D-444B-AF3E-4942425A5B6F</title><path d="M30.182 24.485l-5.893-4.542a2.087 2.087 0 0 0-1.284-.438c-.66 0-1.29.315-1.686.844l-2.173 2.905c-1.732-.781-3.713-2.105-5.862-4.285-2.17-2.204-3.473-4.228-4.238-5.974l2.901-2.236a2.112 2.112 0 0 0 .401-2.928l-4.48-5.988A2.117 2.117 0 0 0 6.18 1c-.469 0-.913.151-1.284.437l-3.39 2.614a1.18 1.18 0 0 0-.086.08c-.073.08-.084.097-.095.113a.757.757 0 0 0-.067.107 1.12 1.12 0 0 0-.068.171c-.087.319-1.98 7.85 8.29 18.27 7.379 7.49 13.31 8.608 16.19 8.608 1.123 0 1.768-.17 1.838-.19a.887.887 0 0 0 .276-.136.81.81 0 0 0 .117-.1c.024-.025.048-.049.07-.075l2.61-3.486a2.112 2.112 0 0 0-.4-2.928z" stroke="#243A68" stroke-width="2" fill="none" fill-rule="evenodd" stroke-linecap="round" stroke-linejoin="round"/></symbol><symbol viewBox="0 0 624 54" id="cards" xmlns="http://www.w3.org/2000/svg"><path fill="#fff" d="M0 0h624v54H0V0z"/><path fill="#d13319" d="M143.61 6.5c2.91-1.46 6.21-1.73 9.34-2.44 5.49.76 10.91 2.43 15.2 6.07-.45.47-1.35 1.42-1.8 1.9 1.33.2 2.66.4 4 .59.53.7 1.07 1.4 1.61 2.1l-8 .09c-.26.57-.76 1.71-1.01 2.28 3.85.51 8.97-1.49 11.71 2.09-4.05.42-8.15-.11-12.18.5-.42.45-1.26 1.34-1.69 1.79 4.71.35 9.44.18 14.15.14-.18.35-.55 1.07-.73 1.43-.48.08-1.43.26-1.91.35-.39.02-1.18.07-1.58.09-.28.52-.84 1.57-1.12 2.1-1.54-4.34-7.08-2.79-7.86 1.14-.34 1.4-.64 2.81-.89 4.22-1.52-2.5-.4-5.13 1.31-7.16-.79-.88-1.59-1.75-2.4-2.62l-.9 1.12c-.21.26-.64.78-.85 1.04-2.37-.53-4.78-.51-6.57 1.3l-.08-.05c-1.62-1.54-3.75-1.93-5.9-1.45-.22.37-.65 1.11-.87 1.48l-.52.96c1.52.67 3.23.76 4.84.37-1.73.54-3.45 1.06-5.13 1.71l-.85.45c.64-2.48.95-5.02 1.2-7.57-1.05.47-2.07.98-3.06 1.54-.98.5-1.71 1.24-2.19 2.23.02-.79.07-2.39.1-3.19-1.17.02-2.34.03-3.5.05-.7 3.9-1.41 7.79-1.9 11.72 1.73-.55 2.69-1.73 2.88-3.57.21 1.33.45 2.65.72 3.96.32-.16.96-.49 1.28-.65.25-.42.76-1.24 1.02-1.66.4.55 1.21 1.64 1.61 2.19l.4-.32.79-.64c4.35.78 8.84 1.04 13.19.09l.76-.13c4.94.71 9.95.43 14.92.59.86-2.13 1.36-4.39 2.17-6.54.58 2.05 1.14 4.1 1.69 6.15-.38.28-1.14.85-1.52 1.13-4.04.07-8.08.05-12.11.37 2.93 3.34 7.89 1.47 11.76 2-.27.56-.81 1.69-1.09 2.25-2.78.04-5.56.1-8.33.28 1.77 1.57 4.04 2.11 6.33 2.4-.72.7-1.44 1.4-2.17 2.08-4.01 3.66-9.46 5.61-14.86 5.61-13.25.55-24.15-13.81-21.04-26.47 1.24-6.65 6.08-11.96 11.63-15.49z"/><path fill="#ffa319" d="M168.15 10.13c3.93-3.96 9.59-5.14 14.87-6.11 6.3 1.09 13.78 2.76 16.94 9 3.76 5.4 5.95 12.43 3.81 18.89-.45 2.06-2.01 4.04-1.49 6.2l.35.39c-.37.02-1.12.07-1.49.09-6.47 11.65-23.74 12.8-33.26 4.26.73-.68 1.45-1.38 2.17-2.08-2.29-.29-4.56-.83-6.33-2.4 2.77-.18 5.55-.24 8.33-.28.28-.56.82-1.69 1.09-2.25-3.87-.53-8.83 1.34-11.76-2 4.03-.32 8.07-.3 12.11-.37.38-.28 1.14-.85 1.52-1.13 4.52.54 9.11.55 13.62-.05l.58-.08-.08 1.1c.49-.14 1.47-.41 1.96-.55.86-2.05 1.4-4.21 2.11-6.32.24 2.24.66 4.46 1.45 6.58 1.9-.22 3.82-.38 5.72-.65.88-3.87 1.35-7.82 1.69-11.77-.57.32-1.69.96-2.26 1.28-.31.35-.95 1.06-1.26 1.42-2.5.12-5 .16-7.5-.07l-.29.38c-.14.16-.42.5-.56.67-2.39-1.49-5.1-1.71-7.42.05-.16.07-.49.21-.66.29l.2-1.27.36-2.63c-2.54-.19-4.91.64-7.03 1.99l-1.43.33c.18-.36.55-1.08.73-1.43-4.71.04-9.44.21-14.15-.14.43-.45 1.27-1.34 1.69-1.79 4.03-.61 8.13-.08 12.18-.5-2.74-3.58-7.86-1.58-11.71-2.09.25-.57.75-1.71 1.01-2.28l8-.09c-.54-.7-1.08-1.4-1.61-2.1-1.34-.19-2.67-.39-4-.59.45-.48 1.35-1.43 1.8-1.9z"/><path fill="#19a6e0" d="M230.47 20.05c2.77-9.55 12.55-15.9 22.3-15.76 4.86.64 9.4 2.79 13.27 5.76l-.82.86-1.48 1.56c1.47.02 2.94.02 4.41.03.49.54 1.46 1.63 1.95 2.17-2.71.09-5.42.14-8.12.18-.31.58-.91 1.75-1.21 2.33 3.61.01 7.22.01 10.84.09.08.57.25 1.7.33 2.27-4.06-.04-8.11-.04-12.17-.04l-.72 2.29c4.73.15 9.53-.45 14.2.51-1.73.5-3.44 1.06-5.1 1.72-.13.24-.37.71-.49.95-1.9-3.08-5.86-2.74-8.24-.45-.2.16-.61.47-.81.63-1.26-3.14-5.13-3.07-7.28-.91-1.28 1.91 3.07 1.88 4.36 1.82.1 1.25.19 2.52.27 3.78-.73 0-2.19.01-2.92.01.08-.42.25-1.25.33-1.67l2.07.19-1.41-1.53c-1.12.1-2.23.29-3.31.58-.11.82-.32 2.47-.43 3.29-.91 2.5 2.14 2.93 3.6 1.57 1.11-.25 2.23-.47 3.34-.69l.57-2.64c.61 1.57 1.29 3.1 1.97 4.64l.92 2.04c3.49.27 6.99.18 10.48.17l-1.12 2.36c-2.78.01-5.56.02-8.34.16 1.61 2 4.04 2.35 6.47 2.4-.34.33-1.02 1-1.36 1.33-3.74 3.67-8.78 5.89-13.94 6.55-7.11.15-14.36-2.99-18.74-8.67-4.28-5.52-6.1-13.2-3.67-19.88z"/><path fill="#ef3947" d="M265.22 10.91c5.57-5.37 14.15-8.08 21.67-5.67 8.31 2.07 15.13 9.32 16.33 17.86 1 5.06-.48 10.21-2.72 14.72.39.47 1.18 1.41 1.57 1.88-.45-.4-1.37-1.18-1.82-1.57-3.35 4.87-8.39 8.63-14.24 9.83-7.04 1.9-14.51-.65-20.11-5.01l.92-.9c.34-.33 1.02-1 1.36-1.33-2.43-.05-4.86-.4-6.47-2.4 2.78-.14 5.56-.15 8.34-.16l1.12-2.36c-3.49.01-6.99.1-10.48-.17l-.92-2.04c3.96-.04 7.92-.02 11.88.01.34-.38 1.02-1.16 1.36-1.55.35-.4 1.06-1.19 1.41-1.59.15.57.45 1.7.61 2.26 2.55-.12 5.12-.18 7.68-.43.65-1.93.89-4.04 1.95-5.81l.46.08c1.03 1.67.12 4.19 1.92 5.48 1.73 1.19 3.97.58 5.9.32.63-.54 1.87-1.63 2.49-2.17.44.46 1.32 1.38 1.75 1.84-.32-.5-.96-1.49-1.28-1.99.5-2.69.72-6.68-2.8-7.29-3.73.46-7.48.91-11.21.2l-.13.52c-.8 2.51-1.51 5.04-2.22 7.58-1.37-1.51-1.2-3.45-1.13-5.3.56-.38 1.7-1.14 2.26-1.51-.62-1.29-1.24-2.58-1.85-3.88-.5.23-1.5.68-2.01.91-.53.75-1.04 1.51-1.5 2.31-.51-.32-1.54-.96-2.06-1.28-4.67-.96-9.47-.36-14.2-.51l.72-2.29c4.06 0 8.11 0 12.17.04-.08-.57-.25-1.7-.33-2.27-3.62-.08-7.23-.08-10.84-.09.3-.58.9-1.75 1.21-2.33 2.7-.04 5.41-.09 8.12-.18-.49-.54-1.46-1.63-1.95-2.17-1.47-.01-2.94-.01-4.41-.03l1.48-1.56z"/><path fill="#404c9e" d="M62.99 13.01c4.75-2.98 10.63-2.76 15.88-1.42-.08 2.17-.28 4.33-.57 6.48-3.22-.58-6.67-2.07-9.85-.56-1.37.41-1.77 2.1-1.13 3.3 3.3 2.68 8.26 3.6 10.16 7.79 1.14 3.27.35 7.28-2.38 9.55-2.93 2.93-7.26 3.09-11.05 4.09-2.92-.78-5.89-1.29-8.83-1.97.39-2.3.79-4.6 1.21-6.9 3.47 1.64 7.62 2.96 11.38 1.56 1.55-.41 2.63-2.65 1.32-3.87-3.04-2.74-7.85-3.45-9.84-7.35-2.01-3.84.24-8.56 3.7-10.7z"/><path fill="#f9a027" d="M8.64 11.47c4.76-.27 9.56-.35 14.32-.01 1.47.08 1.87 1.83 2.24 2.98 1.05 4.38 1.57 8.89 2.96 13.19-.14.01-.43.01-.58.02-1.7-5.43-5.77-9.7-10.62-12.5-2.63-1.53-5.61-2.3-8.32-3.68z"/><path fill="#404c9e" d="M35.5 11.32c2.81-.02 5.61-.02 8.43-.01-4.13 10.05-8.3 20.08-12.61 30.06-2.46-.05-4.92-.07-7.38-.1-2.26-8.73-4.83-17.37-6.98-26.12 4.85 2.8 8.92 7.07 10.62 12.5.23.92.69 2.78.92 3.71 1.43-6.96 4.72-13.34 7-20.04zM47.28 11.27c2.59.01 5.17.01 7.76 0-1.26 10.06-3.24 20.01-4.81 30.02-2.65.03-5.3.05-7.94.06 1.59-10.04 3.26-20.06 4.99-30.08zM89.89 11.78c2.81-.91 5.89-.33 8.8-.48 1.77 8.23 3.66 16.44 5.25 24.7.33 1.81.68 3.61 1.04 5.41-2.4-.08-4.79-.1-7.19-.1-.36-1.54-.73-3.07-1.1-4.6-3.38-.04-6.76-.05-10.14-.1-.29 1.58-.56 3.16-.82 4.74-2.73-.01-5.45-.01-8.18-.05 2.43-6.08 5.24-12 7.68-18.06 1.17-3.92 1.67-8.4 4.66-11.46z"/><path fill="#1975a4" d="M337.96 11.02c10.65 0 21.3-.02 31.95.01 1.12 2.71 2.28 5.4 3.55 8.04 1.1-2.71 2.24-5.4 3.42-8.08 14.63.08 29.26-.05 43.89.07 1.51 1.6 3.09 3.14 4.73 4.62.64-1.84 1.87-3.35 3.18-4.75 6.72.18 13.45.02 20.17.11-4.92 5.36-10.02 10.56-14.98 15.89 4.72 5.32 9.73 10.37 14.3 15.8-6.09-.09-12.18.07-18.27-.06-2.6.12-3.49-2.98-4.46-4.82-1.6 1.61-3.19 3.23-4.76 4.86-23.71-.03-47.41.06-71.11-.05-.7-1.74-1.41-3.47-2.15-5.19l-4.52.18c-.7 1.68-1.39 3.37-2.1 5.06-5.59-.03-11.18-.01-16.78.01 4.61-10.59 9.3-21.13 13.94-31.7z"/><path fill="#1a4594" d="M476.28 11.25c4.61-.1 9.23-.31 13.83.03 2.88.22 5.88 2.01 6.59 4.96.97 5.11-.81 11.41-5.81 13.79-3.12 1.66-6.78.9-10.11 1.67-.87 3.13-1.16 6.39-1.7 9.58-2.52.14-5.05.17-7.57.12 1.43-10.07 3-20.13 4.77-30.15z"/><path fill="#1aa6e2" d="M551.16 11.24c4.98-.08 9.98-.32 14.95.06 3.03.22 6.15 2.36 6.61 5.52.71 4.91-1.07 10.73-5.73 13.1-3.46 1.96-7.58.92-11.28 1.78-.97 3.12-1.21 6.41-1.69 9.63-2.54.09-5.07.1-7.6.07 1.39-10.08 2.99-20.13 4.74-30.16zM601.23 11.18c2.25-.02 4.5-.03 6.76-.02-1.37 10.05-2.7 20.19-4.88 30.08-2.18.28-4.36.2-6.53.18 1.33-10.11 3.08-20.16 4.65-30.24z"/><path fill="#fff" d="M341.16 15.59c2.69-.07 5.38-.09 8.07-.11 3.22 6.94 5.94 14.1 9.41 20.92.09-6.96-.01-13.93.01-20.89 3.1-.01 6.21-.01 9.31.08 1.04 5.3 3.01 10.35 5.8 14.97 2.18-4.97 4.35-9.95 6.41-14.98 3.04-.08 6.08-.08 9.12-.06l.06 22.75c-1.91-.01-3.81-.03-5.7-.05-.04-5.82.04-11.64-.04-17.46-2.83 5.68-5.04 11.65-7.6 17.45l-5.04.03c-1.2-2.48-1.87-5.16-2.54-7.81-1.22-3.32-2.86-6.46-4.26-9.69-.46 5.81-.15 11.64-.22 17.46-3.65.02-7.29.02-10.94.01-.72-1.66-1.44-3.33-2.16-4.99-3.75 0-7.51-.01-11.27.05-.73 1.7-1.48 3.41-2.24 5.1-1.94-.06-3.87-.1-5.8-.14 3.15-7.58 6.53-15.04 9.62-22.64zM394 15.52c8.31-.02 16.63-.02 24.94-.01 2.14 2.53 4.33 5.01 6.47 7.52 1.27-2.92 3.65-5.09 5.71-7.44 2.34-.07 4.69-.09 7.05-.08-3.27 3.97-6.91 7.59-10.29 11.45 3.39 3.76 7.01 7.3 10.2 11.23-2.36.04-4.72.04-7.08.02-2.07-2.33-4.43-4.51-5.58-7.48-2.57 2.35-4.49 5.49-7.41 7.39-7.99.28-16.01.01-24.01.1-.01-7.57 0-15.13 0-22.7z"/><path fill="#1975a4" d="M412.19 16.38c3.3 3.47 6.51 7.03 9.75 10.57-3.22 3.29-6.45 6.58-9.65 9.88l-.4-3.39c-4.15.07-8.3.06-12.45.05-.01-1.5-.01-3.01-.01-4.51 4.12 0 8.24 0 12.36-.02 0-1.49.02-2.99.04-4.48-4.12-.08-8.25-.08-12.37-.04-.03-1.39-.05-2.79-.07-4.18 4.24-.05 8.48-.03 12.73-.05.02-.96.05-2.87.07-3.83z"/><path fill="#fff" d="M482.98 17.03c1.46.18 2.98.24 4.42.64 1.91 1.04 1.54 3.71.73 5.36-1.22 2.4-4.31 1.95-6.52 2.38.41-2.8.86-5.59 1.37-8.38zM557.89 17.08c2.15.39 5.11-.46 6.52 1.7.63 2 .09 4.64-1.83 5.73-1.92.82-4.06.65-6.08.86.4-2.78.85-5.54 1.39-8.29zM89 30.59c1.24-3.64 2.41-7.32 4.18-10.75.8 3.56 1.47 7.14 2.34 10.68-2.18.03-4.35.05-6.52.07z"/><path fill="#1975a4" d="M341.59 28.35c1.12-2.95 2.3-5.89 3.86-8.65 1.21 2.88 2.35 5.78 3.46 8.69-2.45-.01-4.89-.02-7.32-.04z"/><path fill="#fff" d="M135.48 21.15c1.16-.02 2.33-.03 3.5-.05-.03.8-.08 2.4-.1 3.19.07.65.21 1.95.29 2.6 1.63-1.05 1.77-3.09 1.9-4.83.99-.56 2.01-1.07 3.06-1.54-.25 2.55-.56 5.09-1.2 7.57-.35.28-1.05.86-1.4 1.14.09-1 .29-3.02.38-4.03-.85 1.9-1.62 3.84-2.43 5.75-.26.42-.77 1.24-1.02 1.66-.75-2.53-1-5.15-1.22-7.76-.28 1.48-.54 2.96-.78 4.45-.19 1.84-1.15 3.02-2.88 3.57.49-3.93 1.2-7.82 1.9-11.72z"/><path fill="#fbf9f7" d="M175.64 22.71c2.12-1.35 4.49-2.18 7.03-1.99l-.36 2.63c-1.25-.05-2.49-.08-3.73-.09-.73 1.68-1.8 3.5-1.22 5.39.71 1.52 2.67 1.08 3.99 1.55-.15.55-.44 1.64-.59 2.18-1.79-.31-4.24.07-5.28-1.81-1.41-2.45-.38-5.31.16-7.86z"/><path fill="#fff" d="M199.8 21.88c.57-.32 1.69-.96 2.26-1.28-.34 3.95-.81 7.9-1.69 11.77-1.74-.2-3.5-.25-5.19-.72-1.55-1.98-.69-4.6-.82-6.89-.4.55-.78 1.11-1.16 1.68-.71 2.11-1.25 4.27-2.11 6.32-2.37-2.51-.45-6.16-.34-9.15l.29-.38c2.5.23 5 .19 7.5.07 1.45.43 1.87-.05 1.26-1.42z"/><path fill="#1a4594" d="M236.21 32.66c.69-3.99 1.03-8.09 2.67-11.84-.43 3.75-1.3 7.43-1.7 11.18l1.11.35.86.28c-.74.01-2.21.02-2.94.03z"/><path fill="#fff" d="M238.88 20.82c1.53-.01 3.07-.03 4.61-.05.03 2.15.08 4.3.2 6.45 1.28-2.04 2.3-4.22 3.2-6.44l4.46.03c-.78 3.82-1.62 7.62-2.31 11.45l-1.64-.21c-.24-.14-.71-.42-.94-.56.5-2.53.97-5.08 1.33-7.65-.74 1.6-1.45 3.21-2.1 4.84-.52 1.23-1.08 2.45-1.74 3.61-.56-.12-1.7-.37-2.26-.49-.25-2.61-.36-5.22-.58-7.83-.23 1.18-.45 2.36-.65 3.54-.67 1.57-.09 4.27-2.17 4.84l-1.11-.35c.4-3.75 1.27-7.43 1.7-11.18z"/><path fill="#1a4594" d="M275.31 23.58c.46-.8.97-1.56 1.5-2.31-.72 2.86-1.33 5.77-1.54 8.73-.57 2.3 2.52 1.95 3.88 2.39.1-.34.29-1.01.39-1.34.71-2.54 1.42-5.07 2.22-7.58-.43 2.69-.94 5.38-1.5 8.05.61.19 1.83.57 2.45.77-2.56.25-5.13.31-7.68.43-.16-.56-.46-1.69-.61-2.26-.01-.69-.02-2.07-.03-2.76.73-.94 1.35-2.12 1.02-3.35l-.1-.77z"/><path fill="#fff" d="M276.81 21.27c.51-.23 1.51-.68 2.01-.91.61 1.3 1.23 2.59 1.85 3.88-.56.37-1.7 1.13-2.26 1.51-.07 1.85-.24 3.79 1.13 5.3-.1.33-.29 1-.39 1.34-1.36-.44-4.45-.09-3.88-2.39.21-2.96.82-5.87 1.54-8.73z"/><path fill="#1a4594" d="M497.66 25.69c3.32-5.08 11.09-6.86 15.95-2.94.19-.39.56-1.17.74-1.56 1.89-.02 3.79-.03 5.7-.04.2 6.83-.64 13.66-2.34 20.28-2.34-.45-6.2 1.39-7.06-1.76-3.58 2.6-9 3.26-12.55.3-3.93-3.68-3.35-10.16-.44-14.28zM522.31 21.39c2.45-.17 4.95-.49 7.39.02 1.54 3.49 2.17 7.31 3.6 10.85 2.36-3.47 5-6.82 6.43-10.83 2.42-.5 4.93-.23 7.4-.15-2.19 5.21-6.7 9.05-8.67 14.38-2.49 4.47-5.83 8.4-8.53 12.75-2.54.11-5.07.08-7.59-.12 1.78-3.18 3.99-6.08 6.07-9.05a513.92 513.92 0 0 1-6.1-17.85z"/><path fill="#1aa6e2" d="M574.52 24.48c3.61-4.14 10.35-5.21 14.85-1.89 1.42-2.28 4.43-1.17 6.65-1.48.24 6.69-.79 13.34-2.24 19.84-2.36.81-5.52 1.11-7.43-.82-3.8 1.84-8.89 2.85-12.36-.17-4.3-4.08-3.22-11.39.53-15.48z"/><path fill="#9e7187" d="M138.88 24.29c.48-.99 1.21-1.73 2.19-2.23-.13 1.74-.27 3.78-1.9 4.83-.08-.65-.22-1.95-.29-2.6z"/><path fill="#1a4594" d="M158.01 23.32c.21-.26.64-.78.85-1.04-.8 3.08-1.96 6.43-1.06 9.59.89.16 2.66.5 3.55.66-.12-.4-.37-1.19-.5-1.59.25-1.41.55-2.82.89-4.22.29 1.65-.04 3.8 1.54 4.89 1.77.96 4.62 1.19 5.77-.88.19-.58.58-1.75.78-2.34-1.78.41-3.54.83-5.3 1.27-.18-.3-.54-.9-.73-1.2 1.8-.06 3.6-.09 5.4-.13l.4-2.75c.28-.53.84-1.58 1.12-2.1.11 3.01-2.84 7.32.43 9.25-4.97-.16-9.98.12-14.92-.59.42-1.52.73-3.07 1.03-4.63-.01-.39-.04-1.19-.05-1.58-.7-.03-2.09-.08-2.78-.11l-.3-.45c.65-.14 1.97-.43 2.62-.57.32-.37.94-1.11 1.26-1.48z"/><path fill="#fcf6f6" d="M158.86 22.28l.9-1.12c.81.87 1.61 1.74 2.4 2.62-1.71 2.03-2.83 4.66-1.31 7.16.13.4.38 1.19.5 1.59-.89-.16-2.66-.5-3.55-.66-.9-3.16.26-6.51 1.06-9.59z"/><path fill="#9591aa" d="M198.54 23.3c.31-.36.95-1.07 1.26-1.42.61 1.37.19 1.85-1.26 1.42z"/><path fill="#faf5f5" d="M145.46 23.12c2.15-.48 4.28-.09 5.9 1.45-.73 2.45.19 6.08-2.36 7.55-.48-.38-1.44-1.15-1.91-1.53.43-.67 1.3-1.99 1.73-2.66-.7.14-2.08.41-2.78.55.2 1.46.69 2.84 1.15 4.23-.8-.51-2.39-1.53-3.19-2.03-.06-.76-.17-2.28-.22-3.04 1.68-.65 3.4-1.17 5.13-1.71-1.17-1.06-2.79-1.41-4.32-1.33.22-.37.65-1.11.87-1.48z"/><path fill="#f8f5f6" d="M151.44 24.62c1.79-1.81 4.2-1.83 6.57-1.3-.32.37-.94 1.11-1.26 1.48-.65.14-1.97.43-2.62.57l.3.45c.53 1.02 1.58 2.01 2.83 1.69-.3 1.56-.61 3.11-1.03 4.63l-.76.13c-1.59-.06-3.17-.12-4.75-.19l.01-1.68c1.41-.18 2.83-.36 4.24-.55-1.57-1.45-3.43-2.88-3.53-5.23z"/><path fill="#fff" d="M161.74 26.72c.78-3.93 6.32-5.48 7.86-1.14l-.4 2.75c-1.8.04-3.6.07-5.4.13.19.3.55.9.73 1.2 1.49.42 3 .78 4.52 1.07-1.15 2.07-4 1.84-5.77.88-1.58-1.09-1.25-3.24-1.54-4.89z"/><path fill="#f5f2f5" d="M170.72 23.48c.4-.02 1.19-.07 1.58-.09.87.34 1.75.69 2.63 1.05-.41.44-1.21 1.31-1.61 1.75-.81 2.15-1.31 4.41-2.17 6.54-3.27-1.93-.32-6.24-.43-9.25z"/><path fill="#1a4594" d="M172.3 23.39c.48-.09 1.43-.27 1.91-.35l1.43-.33c-.54 2.55-1.57 5.41-.16 7.86 1.04 1.88 3.49 1.5 5.28 1.81.15-.54.44-1.63.59-2.18.22-.87.46-1.73.74-2.59.16 1.43.43 2.84.78 4.24 1.9.33 3.84.35 5.76.44-4.51.6-9.1.59-13.62.05-.55-2.05-1.11-4.1-1.69-6.15.4-.44 1.2-1.31 1.61-1.75-.88-.36-1.76-.71-2.63-1.05zM178.58 23.26c1.24.01 2.48.04 3.73.09l-.2 1.27c.17-.08.5-.22.66-.29l4.42.84c.16.28.48.84.65 1.12-.32-.02-.94-.07-1.25-.09-1.29-.24-2.57-.53-3.84-.8-1.38-.75-2.78-1.45-4.17-2.14z"/><path fill="#fff" d="M182.77 24.33c2.32-1.76 5.03-1.54 7.42-.05-.67 2.59-.75 5.28-.98 7.93l-.58.08c-1.92-.09-3.86-.11-5.76-.44-.35-1.4-.62-2.81-.78-4.24 1.48-.52 2.98-1 4.5-1.41.31.02.93.07 1.25.09-.17-.28-.49-.84-.65-1.12l-4.42-.84z"/><path fill="#f1f6f9" d="M251.33 24.24c2.15-2.16 6.02-2.23 7.28.91-.29 1.26-.56 2.53-.81 3.8l-.57 2.64c-1.11.22-2.23.44-3.34.69-1.17-.6-2.37-1.12-3.6-1.57.11-.82.32-2.47.43-3.29 1.08-.29 2.19-.48 3.31-.58l1.41 1.53-2.07-.19c-.08.42-.25 1.25-.33 1.67.73 0 2.19-.01 2.92-.01-.08-1.26-.17-2.53-.27-3.78-.03-.26-.08-.78-.1-1.04-1.41-.32-2.83-.59-4.26-.78z"/><path fill="#f5f9fc" d="M259.42 24.52c2.38-2.29 6.34-2.63 8.24.45-.08.55-.23 1.66-.31 2.21l-1.36 1.12c-1.58-.42-3.34-.6-4.86.15.21.25.61.75.82 1 1.69.52 3.47.6 5.23.69-1.4 2.71-5.04 2.52-7.2.93-1.95-1.66-.91-4.43-.56-6.55z"/><path fill="#fff" d="M268.15 24.02c1.66-.66 3.37-1.22 5.1-1.72.52.32 1.55.96 2.06 1.28l.1.77c-.4.15-1.19.45-1.58.6-.95-.84-3.74-.05-2.3 1.38.58.17 1.72.51 2.3.67l.56.7c.01.69.02 2.07.03 2.76-.35.4-1.06 1.19-1.41 1.59-1.85.08-3.71.06-5.56.07l.16-2.05c.67-.08 2.03-.23 2.7-.31.48.03 1.45.1 1.93.13-1.95-1.54-4.19-3.08-4.09-5.87zM281.89 22.95c3.73.71 7.48.26 11.21-.2 3.52.61 3.3 4.6 2.8 7.29.32.5.96 1.49 1.28 1.99-.43-.46-1.31-1.38-1.75-1.84-.62.54-1.86 1.63-2.49 2.17-1.74-.31-3.69-.1-5.24-1.05-1.92-1.64-1.01-4.44-1.37-6.63-.56.6-1.17 1.15-1.67 1.8-1.06 1.77-1.3 3.88-1.95 5.81-.62-.2-1.84-.58-2.45-.77.56-2.67 1.07-5.36 1.5-8.05l.13-.52z"/><path fill="#ffa319" d="M177.36 28.65c-.58-1.89.49-3.71 1.22-5.39 1.39.69 2.79 1.39 4.17 2.14 1.27.27 2.55.56 3.84.8-1.52.41-3.02.89-4.5 1.41-.28.86-.52 1.72-.74 2.59-1.32-.47-3.28-.03-3.99-1.55z"/><path fill="#404c9e" d="M190.19 24.28c.14-.17.42-.51.56-.67-.11 2.99-2.03 6.64.34 9.15-.49.14-1.47.41-1.96.55l.08-1.1c.23-2.65.31-5.34.98-7.93z"/><path fill="#1a4594" d="M241.11 23.97c.22 2.61.33 5.22.58 7.83.56.12 1.7.37 2.26.49-.92.17-1.84.34-2.75.5-.29-1.75-.64-3.5-.74-5.28.2-1.18.42-2.36.65-3.54z"/><path fill="#1975a4" d="M245.69 28.68c.65-1.63 1.36-3.24 2.1-4.84-.36 2.57-.83 5.12-1.33 7.65.23.14.7.42.94.56l1.14.77c-.69 0-2.08.01-2.77.01-.17-1.38-.2-2.77-.08-4.15z"/><path fill="#2078ae" d="M255.69 26.06c-1.29.06-5.64.09-4.36-1.82 1.43.19 2.85.46 4.26.78.02.26.07.78.1 1.04z"/><path fill="#1a4594" d="M267.66 24.97c.12-.24.36-.71.49-.95-.1 2.79 2.14 4.33 4.09 5.87-.48-.03-1.45-.1-1.93-.13-1.02-.82-2.01-1.67-2.96-2.58.08-.55.23-1.66.31-2.21z"/><path fill="#ef3947" d="M273.83 24.95c.39-.15 1.18-.45 1.58-.6.33 1.23-.29 2.41-1.02 3.35l-.56-.7v-2.05z"/><path fill="#404c9e" d="M136.46 29.3c.24-1.49.5-2.97.78-4.45.22 2.61.47 5.23 1.22 7.76-.32.16-.96.49-1.28.65a86.26 86.26 0 0 1-.72-3.96z"/><path fill="#1a4594" d="M144.07 25.56l.52-.96c1.53-.08 3.15.27 4.32 1.33-1.61.39-3.32.3-4.84-.37z"/><path fill="#404c9e" d="M151.36 24.57l.08.05c.1 2.35 1.96 3.78 3.53 5.23-1.41.19-2.83.37-4.24.55l-.01 1.68c1.58.07 3.16.13 4.75.19-4.35.95-8.84.69-13.19-.09.43-.38 1.29-1.13 1.72-1.5.8.5 2.39 1.52 3.19 2.03-.46-1.39-.95-2.77-1.15-4.23.7-.14 2.08-.41 2.78-.55-.43.67-1.3 1.99-1.73 2.66.47.38 1.43 1.15 1.91 1.53 2.55-1.47 1.63-5.1 2.36-7.55z"/><path fill="#5c4578" d="M165.26 25.36c3.03-1.54.16 3.37 0 0z"/><path fill="#1a4594" d="M193.2 26.44c.38-.57.76-1.13 1.16-1.68.13 2.29-.73 4.91.82 6.89 1.69.47 3.45.52 5.19.72-1.9.27-3.82.43-5.72.65-.79-2.12-1.21-4.34-1.45-6.58zM197.52 26.43c.2-1.68.71-1.82 1.52-.42-.38.11-1.14.32-1.52.42z"/><path fill="#1975a4" d="M258.61 25.15c.2-.16.61-.47.81-.63-.35 2.12-1.39 4.89.56 6.55 2.16 1.59 5.8 1.78 7.2-.93.11-.02.32-.05.43-.07l-.16 2.05c1.85-.01 3.71.01 5.56-.07-.34.39-1.02 1.17-1.36 1.55-3.96-.03-7.92-.05-11.88-.01-.68-1.54-1.36-3.07-1.97-4.64.25-1.27.52-2.54.81-3.8z"/><path fill="#1975a4" d="M261.92 25.76c.1-1.71 3.14-1.77 3.27-.04-.22 1.57-3.04 1.63-3.27.04zM271.53 26.33c-1.44-1.43 1.35-2.22 2.3-1.38V27c-.58-.16-1.72-.5-2.3-.67z"/><path fill="#1a4594" d="M284.66 26.48c.5-.65 1.11-1.2 1.67-1.8.36 2.19-.55 4.99 1.37 6.63 1.55.95 3.5.74 5.24 1.05-1.93.26-4.17.87-5.9-.32-1.8-1.29-.89-3.81-1.92-5.48l-.46-.08z"/><path fill="#ef3947" d="M292.56 30.14c-3.77.64-3.79-3.76-1.37-5.32.26 1.32.63 2.62 1 3.91l.37 1.41z"/><path fill="#1a4594" d="M291.19 24.82c2.43-1.27 3.7 4.27 1 3.91-.37-1.29-.74-2.59-1-3.91z"/><path fill="#97677f" d="M139.48 30.95c.81-1.91 1.58-3.85 2.43-5.75-.09 1.01-.29 3.03-.38 4.03-.14 1.2-.09 2.4-.04 3.59l-.4.32c-.4-.55-1.21-1.64-1.61-2.19z"/><path fill="#d13319" d="M154.43 25.82c.69.03 2.08.08 2.78.11.01.39.04 1.19.05 1.58-1.25.32-2.3-.67-2.83-1.69z"/><path fill="#ffa319" d="M197.52 26.43c.38-.1 1.14-.31 1.52-.42-.06 1.42-.13 2.83-.2 4.25-2.13.28-3.31-3.35-1.32-3.83z"/><path fill="#fff" d="M506.47 26.58c2.57-1.07 6.22.32 6.35 3.38.58 4.35-4.69 8-8.48 5.69-3.53-2.29-1.5-8.04 2.13-9.07zM582.41 26.55c2.54-.99 6.14.35 6.3 3.37.66 4.57-5.18 8.29-8.94 5.45-2.89-2.64-.86-7.82 2.64-8.82z"/><path fill="#19a6e0" d="M267.35 27.18c.95.91 1.94 1.76 2.96 2.58-.67.08-2.03.23-2.7.31-.11.02-.32.05-.43.07-1.76-.09-3.54-.17-5.23-.69 1.41.05 2.93-.22 4.04-1.15l1.36-1.12z"/><path fill="#bdafc3" d="M142.93 28.09l.85-.45c.05.76.16 2.28.22 3.04-.43.37-1.29 1.12-1.72 1.5l-.79.64c-.05-1.19-.1-2.39.04-3.59.35-.28 1.05-.86 1.4-1.14z"/><path fill="#5e6091" d="M185.14 28.73c.57-2.68 3.6 1.24.9 1.25-.23-.31-.67-.94-.9-1.25z"/><path fill="#5e90b6" d="M261.13 28.45c1.52-.75 3.28-.57 4.86-.15-1.11.93-2.63 1.2-4.04 1.15-.21-.25-.61-.75-.82-1z"/><path fill="#d13319" d="M164.53 29.66c1.76-.44 3.52-.86 5.3-1.27-.2.59-.59 1.76-.78 2.34a53.93 53.93 0 0 1-4.52-1.07z"/><path fill="#daa357" d="M184.44 29.13l.7-.4c.23.31.67.94.9 1.25-.39.02-1.16.04-1.54.05l-.06-.9z"/><path fill="#404c9e" d="M253.89 32.28c-1.46 1.36-4.51.93-3.6-1.57 1.23.45 2.43.97 3.6 1.57z"/><path fill="#c1c5e0" d="M103.94 36c.29.35.88 1.05 1.18 1.4 1.36.31 3.46-.09 3.98 1.63.29 2.52-2.5 1.96-4.12 2.38-.36-1.8-.71-3.6-1.04-5.41z"/></symbol><symbol viewBox="0 0 56 56" id="cross" xmlns="http://www.w3.org/2000/svg"><title>icon : plus</title><path d="M47.692 9.791a1.049 1.049 0 1 0-1.484-1.484l-18.207 18.21L9.792 8.307A1.05 1.05 0 0 0 8.309 9.79l18.209 18.208L8.309 46.21a1.044 1.044 0 0 0 0 1.483 1.049 1.049 0 0 0 1.484 0l18.208-18.211 18.207 18.211a1.048 1.048 0 1 0 1.484-1.483L29.484 27.999 47.692 9.791z"/></symbol><symbol viewBox="0 0 31 32" id="cross-search-overlay" xmlns="http://www.w3.org/2000/svg"><title>icn : + copy</title><path d="M15.825 17.781L2.87 30.735l-.8.8L.47 29.934l.8-.8L14.224 16.18 1.27 3.226l-.8-.8L2.07.825l.801.8L15.825 14.58 27.954 2.45l.8-.8 1.601 1.6-.8.801-12.13 12.129 12.13 12.129.8.8-1.601 1.601-.8-.8-12.13-12.129z" fill="#002663" fill-rule="evenodd"/></symbol><symbol viewBox="0 0 48 49" id="cross-search-overlay-grey" xmlns="http://www.w3.org/2000/svg"><title>icn : x</title><g transform="rotate(45 34.243 19.757)" stroke="#979797" stroke-width="4" fill="none" fill-rule="evenodd" stroke-linecap="square"><path d="M30.305.426v59.406M.728 30.13h59.155"/></g></symbol><symbol viewBox="0 0 30 28" id="download" xmlns="http://www.w3.org/2000/svg"><title>4F7D1D34-693C-49D7-BFB2-0E687461A898</title><path d="M1 13.586V3.771A2.78 2.78 0 0 1 3.772 1h21.66a2.78 2.78 0 0 1 2.773 2.771v9.815m-6.335 6.653l-6.283 6.283a1.397 1.397 0 0 1-1.97 0l-6.281-6.283m7.266 5.706V11.81" stroke-width="2" fill-rule="evenodd" stroke-linecap="round" stroke-linejoin="round"/></symbol><symbol viewBox="0 0 30 28" id="downloads" xmlns="http://www.w3.org/2000/svg"><title>4F7D1D34-693C-49D7-BFB2-0E687461A898</title><path d="M1 13.586V3.771A2.78 2.78 0 0 1 3.772 1h21.66a2.78 2.78 0 0 1 2.773 2.771v9.815m-6.335 6.653l-6.283 6.283a1.397 1.397 0 0 1-1.97 0l-6.281-6.283m7.266 5.706V11.81" stroke-width="2" fill-rule="evenodd" stroke-linecap="round" stroke-linejoin="round"/></symbol><symbol viewBox="0 0 36 26" overflow="auto" id="email" xmlns="http://www.w3.org/2000/svg"><title>Fill 1 + Fill 2</title><g><path d="M5.53 1.406a3.621 3.621 0 0 0-3.612 3.611v16.336a3.622 3.622 0 0 0 3.612 3.61h25.061a3.622 3.622 0 0 0 3.612-3.61V5.017a3.622 3.622 0 0 0-3.612-3.611H5.53zm26.227 20.332c0 .73-.535 1.35-1.166 1.35H5.53c-.631 0-1.166-.619-1.166-1.35V5.202c0-.73.534-1.348 1.166-1.348h25.061c.631 0 1.166.618 1.166 1.348v16.536z"/><path d="M26.931 7.32l-8.893 6.522-8.849-6.486A1.224 1.224 0 0 0 7.742 9.33l9.573 7.016a1.233 1.233 0 0 0 1.448 0l9.618-7.053a1.223 1.223 0 0 0-1.45-1.973"/></g></symbol><symbol viewBox="0 0 14 30" id="facebook" xmlns="http://www.w3.org/2000/svg"><title>icon : facebook</title><path d="M13.395 15.01H9.19v14.985H2.962V15.01H0V9.715h2.962V6.287C2.962 3.834 4.127 0 9.248 0l4.613.019v5.14h-3.348c-.546 0-1.322.272-1.322 1.443v3.113h4.749l-.545 5.295" fill-rule="evenodd"/></symbol><symbol viewBox="0 0 35 16" id="global-nav-marker" xmlns="http://www.w3.org/2000/svg"><title>Rectangle 401</title><path d="M35.003.078L21.959 13.122a6.546 6.546 0 0 1-9.267 0L-.003.428" fill="#002663" fill-rule="evenodd"/></symbol><symbol viewBox="0 0 30 30" id="globe" xmlns="http://www.w3.org/2000/svg"><title>globe@0.5x</title><g transform="translate(1 1)" fill="none" fill-rule="evenodd"><path d="M15.413.505c-.23.864-.603 1.032-1.353 1.207-2.057.48-3.241.852-3.887 1.243-.138.084-.387.053-.385-.09.002-.216.06-.628.413-.962.263-.249.35-.494.26-.726l1.585-.672L13.821.38l1.592.124zM1.006 12.567c.302 1.124.351 1.3 1.026 1.312.402.008 1.008.02 2.162 1.04 1.227 1.085 2.272 1.597 3.034 1.97.861.422 1.248.632 1.399 1.168.178.63-.004 1.08-.195 1.558-.18.445-.365.906-.26 1.488.036.198.031.205-.26.37-.45.258-1.168 1.952-1.377 3.514 0 0-2.218-.559-4.303-4.759s-1.226-7.66-1.226-7.66zm5.741-9.39c.011.597.292 2.454.765 2.861.043.037.14.267-.242.708-.262.303-.626.393-.954.393-.095 0-.233.036-.347.208-.041.059-.805-.356-.972-.236-.686.496-1.834.762-2.614 2.392-.41.858-.809 1.037-1.129 1.18l.7-2.492L3.45 5.685 5.4 3.673s1.338-1.033 1.347-.496zm20.238 7.404c.059.262.181 1.061.377 1.402.415.721.044 1.35-.908 1.468-.626.056-2.475-2.226-2.76-2.26-.946-.11-.367 2.19.542 3.245.252.292.729.87.176 2.05-.1.215-.426.634-.426.634-.438.268-.434.516-1.176.798-1 .38-1.042.533-1.414 1.968-.278 2.001-1.429 2.55-2.498 3.364-1.914.91-1.667.857-2.354.358-.455-.53-.858-1.844-.676-3.183.538-3.961.32-4.172-.116-4.61-.297-.3-.915-.18-1.553-.094-1.28.173-2.145-.775-2.533-2.304-.533-2.092 1.101-2.902 1.966-3.552.473-.356 1.763-.263 1.803-.732.024-.286-.098-.165-.37-.455-.321-.34-.464-.677-.424-1.004.05-.41.364-.748.584-.939.061-.053.33-.14.44-.154.647-.082 2.506-.7 2.837-1.252.129-.215.7-1.03.597-1.271-.145-.345-.036-.499.059-.534.112-.041.255-.085.38-.123l1.83-.85s4.32 2.24 5.617 8.03z" fill="#666"/><path d="M14.162.072C6.57.072.394 6.336.394 14.036S6.57 28 14.162 28c7.591 0 13.768-6.264 13.768-13.964S21.753.072 14.162.072z" stroke="#666" stroke-width="1.577" stroke-linecap="round" stroke-linejoin="round"/></g></symbol><symbol viewBox="0 0 53 50" id="icon-gps" xmlns="http://www.w3.org/2000/svg"><title>gps location</title><g fill="none" fill-rule="evenodd"><path d="M14.104 26.715h.396v-2.264H.5v2.264H14.104zm38-.45h.396V24H38.5v2.264H52.104zM25.45.395V14h2.264V0h-2.264v.396zm.049 36V50h2.264V36H25.5v.396z" fill="#666"/><path d="M38.965 12.313c7.084 7.083 7.084 18.569 0 25.652-7.084 7.084-18.569 7.084-25.653 0-7.083-7.083-7.083-18.569 0-25.652 7.084-7.084 18.57-7.084 25.653 0z" stroke="#666" stroke-width="2" stroke-linecap="round" stroke-linejoin="round"/></g></symbol><symbol viewBox="0 0 30 30" id="instagram" xmlns="http://www.w3.org/2000/svg"><title>icon : instagram</title><path d="M3.85 0h22.3A3.861 3.861 0 0 1 30 3.85v22.3A3.862 3.862 0 0 1 26.15 30H3.85A3.862 3.862 0 0 1 0 26.15V3.85A3.862 3.862 0 0 1 3.85 0zm18.005 3.333c-.744 0-1.35.607-1.35 1.35v3.233c0 .743.606 1.351 1.35 1.351h3.39c.744 0 1.351-.607 1.351-1.35V4.683c0-.744-.607-1.351-1.35-1.351h-3.391zm4.756 9.353H23.97c.25.816.384 1.68.384 2.575 0 4.99-4.175 9.035-9.325 9.035-5.15 0-9.325-4.045-9.325-9.035 0-.895.134-1.759.385-2.575H3.333V25.36c0 .656.536 1.193 1.193 1.193h20.891c.657 0 1.194-.537 1.194-1.193V12.686zm-11.582-3.59c-3.328 0-6.026 2.614-6.026 5.839 0 3.224 2.698 5.838 6.026 5.838 3.327 0 6.025-2.614 6.025-5.838 0-3.225-2.698-5.838-6.025-5.838z" fill="#949494" fill-rule="evenodd"/></symbol><symbol viewBox="0 0 41 30" id="letter" xmlns="http://www.w3.org/2000/svg"><title>DDE4B09E-0448-4918-A272-1DB1974773F8</title><g fill="none" fill-rule="evenodd"><path d="M35.696 2.435c1.654 0 3 1.345 3 3v19.122c0 1.655-1.346 3-3 3h-30c-1.654 0-3-1.345-3-3V5.435c0-1.655 1.346-3 3-3h30m0-2h-30c-2.75 0-5 2.25-5 5v19.122c0 2.75 2.25 5 5 5h30c2.75 0 5-2.25 5-5V5.435c0-2.75-2.25-5-5-5" fill="#243A68"/><path d="M32 8.744H8.82M28 15H9M24.002 21.256H9" stroke="#243A68" stroke-width="2" stroke-linecap="round" stroke-linejoin="round"/></g></symbol><symbol viewBox="0 0 46 44" id="lineme" xmlns="http://www.w3.org/2000/svg"><g fill-rule="evenodd"><path d="M22.93.073c4.418.045 8.61.987 12.53 3.06 2.11 1.114 4.009 2.513 5.652 4.248 2.169 2.288 3.694 4.938 4.403 8.03.27 1.176.399 2.376.373 3.582-.065 3.142-1.052 5.99-2.822 8.57-1.394 2.033-3.064 3.821-4.9 5.457-4.042 3.6-8.462 6.672-13.112 9.419-.84.496-1.744.889-2.63 1.305-.214.1-.472.13-.713.144-.694.04-.88-.454-.82-.954.112-.946.324-1.881.427-2.828a6.33 6.33 0 0 0-.056-1.625c-.038-.245-.252-.507-.457-.675-.514-.421-1.153-.594-1.794-.685a27.97 27.97 0 0 1-4.087-.888c-2.762-.826-5.323-2.063-7.623-3.81C4.19 30.06 1.877 27.11.69 23.34a14.85 14.85 0 0 1-.625-3.16c-.36-4.05.76-7.675 3.136-10.93C5.39 6.251 8.266 4.1 11.604 2.538a25.269 25.269 0 0 1 6.02-1.934c.96-.183 1.936-.287 2.91-.385.794-.08 1.596-.1 2.394-.147"/><path fill="#FFF" d="M27.607 20.363v-5.674c0-.52.151-.684.635-.685.399 0 .798-.003 1.197 0 .4.005.56.176.56.59v9.825c0 .427-.135.574-.53.574-.432.001-.865-.014-1.297.006-.246.012-.41-.091-.548-.289l-4.009-5.767c-.053-.076-.109-.151-.196-.272-.006.138-.013.229-.013.32v5.337c0 .512-.144.665-.617.666h-1.297c-.324-.002-.465-.145-.488-.49-.005-.08-.004-.16-.004-.24V14.76c0-.633.115-.755.712-.755.35 0 .699.01 1.048-.003.283-.011.483.102.651.346 1.341 1.94 2.69 3.875 4.035 5.811.038.054.082.104.161.205m6.817-3.781v1.666h4.046c.403 0 .528.13.528.544v1.436c0 .4-.16.567-.55.568h-4.017v1.654h4.022c.405 0 .545.147.546.566v1.461c-.001.364-.143.52-.48.521H32.5c-.33 0-.5-.186-.5-.547v-9.86c0-.397.172-.586.551-.59.697-.005 1.394 0 2.09 0h3.752c.457 0 .606.155.606.624v1.436c-.002.315-.104.442-.404.497a1.67 1.67 0 0 1-.3.023c-1.183.002-2.366.001-3.55.001h-.322zM9.415 22.452h4.046c.398 0 .538.151.538.574 0 .496.002.992 0 1.488-.002.321-.156.485-.464.485H7.49c-.302 0-.49-.189-.49-.504a7952.48 7952.48 0 0 1 0-9.963c0-.328.18-.516.51-.523.47-.011.94-.013 1.41 0 .337.01.494.2.494.56v7.883zM16 19.51v-4.915c0-.42.198-.588.697-.592a90.828 90.828 0 0 1 1.595 0c.48.006.707.2.707.606v9.806c0 .406-.211.583-.679.584h-1.688c-.462 0-.63-.145-.631-.545-.002-1.648 0-3.295 0-4.943"/></g></symbol><symbol viewBox="0 0 31 42" id="location" xmlns="http://www.w3.org/2000/svg"><title>icn : location</title><path d="M15.48 1C7.496 1 1 7.496 1 15.48c0 7.293 11.393 22.867 12.692 24.619a2.225 2.225 0 0 0 3.578 0c1.298-1.752 12.691-17.326 12.691-24.619C29.961 7.496 23.465 1 15.48 1zm3.906 14.381a4.023 4.023 0 1 1-8.045-.001 4.023 4.023 0 0 1 8.045.001z" stroke-width="2" stroke="#0E2D4E" fill="none" fill-rule="evenodd" stroke-linecap="round" stroke-linejoin="round"/></symbol><symbol viewBox="0 0 29 40" id="location-grey" xmlns="http://www.w3.org/2000/svg"><title>614F5A92-ECCD-481F-B197-172EB8094933</title><path d="M14.48 0C6.496 0 0 6.496 0 14.48c0 7.293 11.393 22.867 12.692 24.619a2.225 2.225 0 0 0 3.578 0c1.298-1.752 12.691-17.326 12.691-24.619C28.961 6.496 22.465 0 14.48 0zm3.906 14.381a4.023 4.023 0 1 1-8.045-.001 4.023 4.023 0 0 1 8.045.001z" fill="#CCC" fill-rule="evenodd"/></symbol><symbol viewBox="0 0 38 48" id="lock-icon" xmlns="http://www.w3.org/2000/svg"><title>icn : locked</title><path d="M10.604 15.097V9.062a8.063 8.063 0 0 1 16.125 0v6.035H10.604zm20.73 31.238H6c-2.75 0-5-2.25-5-5V21.002c0-2.75 2.25-5 5-5h25.334c2.75 0 5 2.25 5 5v20.333c0 2.75-2.25 5-5 5zM18.667 31.59v5.69-5.69zm3.25-3.284a3.25 3.25 0 1 1-6.502 0 3.25 3.25 0 0 1 6.502 0z" stroke="#FFFFFE" stroke-width="2" stroke-linecap="round" stroke-linejoin="round" fill="none" fill-rule="evenodd"/></symbol><symbol viewBox="0 0 41 30" id="mail" xmlns="http://www.w3.org/2000/svg"><title>C218C4B8-7E24-4B5A-A4CB-DC4418A42F36</title><g fill="none" fill-rule="evenodd"><path d="M35.696 2.435c1.654 0 3 1.345 3 3v19.122c0 1.655-1.346 3-3 3h-30c-1.654 0-3-1.345-3-3V5.435c0-1.655 1.346-3 3-3h30m0-2h-30c-2.75 0-5 2.25-5 5v19.122c0 2.75 2.25 5 5 5h30c2.75 0 5-2.25 5-5V5.435c0-2.75-2.25-5-5-5" fill="#243A68"/><path d="M32.572 7.698l-11.904 8.729L8.82 7.744" stroke="#243A68" stroke-width="2" stroke-linecap="round" stroke-linejoin="round"/></g></symbol><symbol viewBox="0 0 44 44" id="messageChat" xmlns="http://www.w3.org/2000/svg"><title>icn : message</title><g fill="none" fill-rule="evenodd"><path d="M22 2c11.046 0 20 8.954 20 20 0 3.792-1.075 7.324-2.908 10.346a172.89 172.89 0 0 1 1.237 6.569 1.225 1.225 0 0 1-1.414 1.414c-1.485-.249-3.846-.67-6.569-1.237A19.875 19.875 0 0 1 22 42C10.954 42 2 33.045 2 22 2 10.954 10.954 2 22 2m0-2C9.869 0 0 9.869 0 22c0 12.13 9.869 22 22 22 3.734 0 7.413-.964 10.691-2.795 2.628.535 4.788.911 5.894 1.097a3.22 3.22 0 0 0 2.999-1.097c.614-.725.875-1.68.718-2.62a175.219 175.219 0 0 0-1.097-5.894A21.926 21.926 0 0 0 44 22C44 9.869 34.131 0 22 0" fill="#243A68"/><path d="M14.071 25.321h14.971m-14.971-6.615h14.971" stroke="#243A68" stroke-width="2" stroke-linecap="round" stroke-linejoin="round"/></g></symbol><symbol viewBox="0 0 20 29" id="phone" xmlns="http://www.w3.org/2000/svg"><title>Phone Icon</title><g stroke="#979797" fill="none" fill-rule="evenodd"><rect stroke-width="2" width="20" height="29" rx="6"/><path d="M3.5 20.5h13.038" stroke-linecap="square"/><circle cx="10" cy="24" r="1"/></g></symbol><symbol viewBox="0 0 28 37" id="pinterest" xmlns="http://www.w3.org/2000/svg"><title>854679B6-E78A-4C84-9A54-BDC5B05B37E3</title><path d="M0 13.004c0 3.58 1.353 6.766 4.254 7.953.476.195.902.007 1.04-.52.096-.366.323-1.288.425-1.671.139-.523.085-.706-.299-1.16-.837-.99-1.371-2.27-1.371-4.083 0-5.26 3.928-9.97 10.228-9.97 5.58 0 8.645 3.416 8.645 7.977 0 6.003-2.651 11.068-6.587 11.068-2.173 0-3.8-1.8-3.279-4.01.625-2.637 1.834-5.483 1.834-7.386 0-1.704-.913-3.126-2.802-3.126-2.221 0-4.006 2.303-4.006 5.389 0 1.965.662 3.294.662 3.294L6.072 28.102c-.794 3.367-.12 7.494-.062 7.911.033.247.35.306.493.12.205-.269 2.852-3.542 3.751-6.813.255-.926 1.462-5.722 1.462-5.722.722 1.38 2.831 2.595 5.075 2.595C23.469 26.193 28 20.092 28 11.926 28 5.75 22.78 0 14.848 0 4.977 0 0 7.091 0 13.004z" fill-rule="evenodd"/></symbol><symbol viewBox="0 0 56 56" id="plus" xmlns="http://www.w3.org/2000/svg"><title>icon : plus</title><path fill="#002663" d="M54.8 29.048a1.05 1.05 0 0 0 0-2.098l-25.75.003V1.2a1.05 1.05 0 0 0-2.097 0v25.751L1.2 26.952a1.046 1.046 0 0 0-1.05 1.05 1.047 1.047 0 0 0 1.05 1.05l25.752-.002-.003 25.75A1.047 1.047 0 0 0 28 55.85c.58.001 1.05-.47 1.049-1.05l.002-25.75 25.75-.002z" fill-rule="evenodd"/></symbol><symbol viewBox="0 0 20 20" id="plus-dy" xmlns="http://www.w3.org/2000/svg"><title>D0DB60E1-3D03-4178-A4FE-1D8C6AA384AA</title><path d="M7.96 7.944H0v3.973h7.96v7.944h3.98v-7.944h7.959V7.944h-7.96V0H7.96v7.944z" fill-rule="evenodd"/></symbol><symbol viewBox="0 0 41 36" id="print" xmlns="http://www.w3.org/2000/svg"><title>5B718CFA-164E-4CDB-AAE6-7B4F2CE9C2FE</title><defs><path id="bga" d="M41 18V0H0v36h41V18z"/></defs><g fill-rule="evenodd"><mask id="bgb"><use xlink:href="#bga"/></mask><path d="M39 27.008A3.003 3.003 0 0 1 35.993 30H32v-7a1 1 0 0 0-1-1H10a1 1 0 0 0-1 1v7H5.007A3.003 3.003 0 0 1 2 27.008v-9.016A3.003 3.003 0 0 1 5.007 15h30.986A3.003 3.003 0 0 1 39 17.992v9.016zM11 34h19V24H11v10zm19-21H11v-2.75h7.249a1 1 0 0 0 1-1V2H30v11zM17.249 3.415V8.25h-4.835l4.835-4.835zM35.993 13H32V1a1 1 0 0 0-1-1H17.727a1 1 0 0 0-.707.293L9.293 8.02A.997.997 0 0 0 9 8.727V13H5.007A4.994 4.994 0 0 0 0 17.992v9.016C0 29.765 2.242 32 5.007 32H9v3c0 .55.442.993.99.998L10 36h21l.01-.002A.997.997 0 0 0 32 35v-3h3.993A4.994 4.994 0 0 0 41 27.008v-9.016C41 15.236 38.758 13 35.993 13z" mask="url(#bgb)"/></g></symbol><symbol viewBox="0 0 45 45" id="question" xmlns="http://www.w3.org/2000/svg"><title>686ACE8F-7FE0-4D3F-AA38-E7C88DE61B8B</title><g transform="translate(1 1)" fill="none" fill-rule="evenodd"><path d="M21.286 0C9.552 0 0 9.546 0 21.286c0 11.74 9.552 21.287 21.286 21.287 11.74 0 21.286-9.547 21.286-21.287C42.572 9.546 33.026 0 21.286 0z" stroke="#243A68" stroke-width="2" stroke-linecap="round" stroke-linejoin="round"/><path d="M21.287 27.583a1.141 1.141 0 0 1-1.142-1.142v-4.015c0-.63.51-1.142 1.142-1.142a4.59 4.59 0 0 0 4.585-4.585 4.592 4.592 0 0 0-4.585-4.587 4.592 4.592 0 0 0-4.585 4.587c0 .632-.511 1.142-1.142 1.142-.632 0-1.143-.51-1.143-1.142 0-3.788 3.082-6.87 6.87-6.87 3.788 0 6.869 3.082 6.869 6.87 0 3.398-2.481 6.23-5.727 6.774v2.968c0 .631-.511 1.142-1.142 1.142M22.506 31.526a1.22 1.22 0 1 1-2.437 0 1.22 1.22 0 0 1 2.437 0" fill="#243A68"/></g></symbol><symbol viewBox="0 0 120 90" id="quote" xmlns="http://www.w3.org/2000/svg"><path fill="#e0c586" d="M60.2 21.9c-6.4 4-11.1 7.8-14.2 11.3s-5.3 7.5-6.6 11.9c1.6-.9 3.4-1.4 5.5-1.4 2.2 0 3.8.6 5 1.9 1.2 1.2 1.8 2.8 1.8 4.8 0 1.9-.4 3.7-1.3 5.3-.9 1.6-2 3-3.3 4.1-1.4 1.1-2.9 2-4.7 2.7-1.8.7-3.6 1-5.5 1-5.9 0-8.9-3-8.9-9 0-3.6.5-7 1.6-10.1 1.1-3.1 2.8-6.1 5.2-9 2.4-2.9 5.5-5.8 9.2-8.7 3.8-2.9 8.2-6 13.5-9.3l2.7 4.5zm32.8 0c-6.4 4-11.1 7.8-14.2 11.3-3.1 3.6-5.3 7.5-6.6 11.9 1.6-.9 3.4-1.4 5.5-1.4 2.2 0 3.8.6 5 1.9 1.2 1.2 1.8 2.8 1.8 4.8 0 1.9-.4 3.7-1.3 5.3-.9 1.6-2 3-3.3 4.1-1.4 1.1-2.9 2-4.7 2.7-1.8.7-3.6 1-5.5 1-5.9 0-8.9-3-8.9-9 0-3.6.5-7 1.6-10.1 1.1-3.1 2.8-6.1 5.2-9 2.4-2.9 5.5-5.8 9.2-8.7 3.8-2.9 8.2-6 13.5-9.3l2.7 4.5z"/></symbol><symbol viewBox="0 0 42 38" id="refresh" xmlns="http://www.w3.org/2000/svg"><title>icn : refresh</title><path d="M36.627 26.349l4.281-6.548a.567.567 0 0 0-.475-.877h-8.562a.568.568 0 0 0-.475.877l4.282 6.548a.566.566 0 0 0 .949 0zM18.59 36.181C8.876 36.181 1 28.306 1 18.591S8.876 1 18.59 1c9.715 0 17.591 7.876 17.591 17.591" stroke="#002663" stroke-width="2" stroke-linecap="round" stroke-linejoin="round" fill="none"/></symbol><symbol viewBox="0 0 36 36" id="search" xmlns="http://www.w3.org/2000/svg"><title>icn : search</title><path d="M24.661 5.888c5.184 5.184 5.184 13.589 0 18.773-5.184 5.184-13.589 5.184-18.773 0-5.184-5.184-5.184-13.589 0-18.773 5.184-5.184 13.589-5.184 18.773 0zm9.46 28.234l-9.324-9.325 9.325 9.325z" stroke="#666" stroke-width="3" stroke-linecap="round" stroke-linejoin="round" fill="none" fill-rule="evenodd"/></symbol><symbol viewBox="0 0 44 45" id="search-dy" xmlns="http://www.w3.org/2000/svg"><title>search</title><path d="M15.618 4.024c3.168 0 6.335 1.213 8.76 3.64a12.373 12.373 0 0 1 .102 17.427l-.034.032a1.688 1.688 0 0 0-.134.118 12.355 12.355 0 0 1-17.455-.067 12.349 12.349 0 0 1 0-17.51 12.345 12.345 0 0 1 8.76-3.64zm0-3.22A15.58 15.58 0 0 0 4.566 5.374c-6.088 6.089-6.088 16.003 0 22.092 5.702 5.705 14.764 6.065 20.891 1.079h.017l15.45 15.472c1.528 1.528 3.82-.765 2.292-2.293l-15.467-15.47c4.97-6.13 4.62-15.182-1.08-20.88A15.58 15.58 0 0 0 15.619.805z" fill-rule="evenodd"/></symbol><symbol viewBox="0 0 30 29" id="share" xmlns="http://www.w3.org/2000/svg"><title>icon : share</title><path fill="none" d="M10.705 14.693a4.353 4.353 0 1 1-8.706-.002 4.353 4.353 0 0 1 8.706.002zm16.863-8.431a4.352 4.352 0 1 1-8.705-.001 4.352 4.352 0 0 1 8.705.001zm0 16.862a4.353 4.353 0 0 1-8.705 0 4.352 4.352 0 0 1 8.705 0zM10.197 12.79l9.04-4.533-9.04 4.533zm8.984 8.33l-8.943-4.442 8.943 4.442z"/></symbol><symbol viewBox="0 0 44 32" id="tick" xmlns="http://www.w3.org/2000/svg"><title>icn : confirmation</title><path d="M42 2L14.495 29.505 2 17.01" stroke="#546E98" stroke-width="4" fill="none" fill-rule="evenodd" stroke-linecap="round" stroke-linejoin="round"/></symbol><symbol viewBox="0 0 30 25" id="twitter" xmlns="http://www.w3.org/2000/svg"><title>icon : twitter</title><path d="M26.934 6.073c.012.263.018.527.018.794C26.952 15 20.76 24.38 9.437 24.38A17.42 17.42 0 0 1 0 21.615c.483.054.973.084 1.469.084 2.886 0 5.538-.982 7.644-2.633a6.166 6.166 0 0 1-5.75-4.274 6.202 6.202 0 0 0 2.778-.107 6.163 6.163 0 0 1-4.936-6.034v-.077c.831.461 1.78.736 2.789.77a6.153 6.153 0 0 1-2.738-5.125c0-1.128.304-2.186.834-3.095a17.47 17.47 0 0 0 12.687 6.432A6.155 6.155 0 0 1 20.775 0c1.769 0 3.37.747 4.492 1.94a12.28 12.28 0 0 0 3.91-1.493 6.177 6.177 0 0 1-2.707 3.406 12.285 12.285 0 0 0 3.535-.967 12.491 12.491 0 0 1-3.07 3.187" fill-rule="evenodd"/></symbol><symbol viewBox="0 0 41 34" id="twitter-logo" xmlns="http://www.w3.org/2000/svg"><title>Twitter Logo</title><path d="M36.804 8.298c.017.36.025.72.025 1.086 0 11.113-8.461 23.93-23.934 23.93A23.803 23.803 0 0 1 0 29.535c.66.075 1.33.115 2.007.115 3.943 0 7.567-1.341 10.445-3.598a8.425 8.425 0 0 1-7.855-5.84 8.475 8.475 0 0 0 3.796-.146c-3.844-.775-6.747-4.17-6.747-8.245v-.105a8.411 8.411 0 0 0 3.811 1.051 8.408 8.408 0 0 1-3.74-7.002 8.38 8.38 0 0 1 1.138-4.23c4.146 5.091 10.347 8.439 17.337 8.79a8.462 8.462 0 0 1-.218-1.918C19.974 3.764 23.74 0 28.388 0a8.41 8.41 0 0 1 6.138 2.652A16.78 16.78 0 0 0 39.87.61a8.44 8.44 0 0 1-3.699 4.654c1.702-.2 3.324-.655 4.83-1.32a17.069 17.069 0 0 1-4.196 4.354" fill="#C7C7C7" fill-rule="evenodd"/></symbol><symbol viewBox="0 0 41 34" id="twitter-logo-grey" xmlns="http://www.w3.org/2000/svg"><title>Twitter Logo</title><path d="M36.804 8.298c.017.36.025.72.025 1.086 0 11.113-8.461 23.93-23.934 23.93A23.803 23.803 0 0 1 0 29.535c.66.075 1.33.115 2.007.115 3.943 0 7.567-1.341 10.445-3.598a8.425 8.425 0 0 1-7.855-5.84 8.475 8.475 0 0 0 3.796-.146c-3.844-.775-6.747-4.17-6.747-8.245v-.105a8.411 8.411 0 0 0 3.811 1.051 8.408 8.408 0 0 1-3.74-7.002 8.38 8.38 0 0 1 1.138-4.23c4.146 5.091 10.347 8.439 17.337 8.79a8.462 8.462 0 0 1-.218-1.918C19.974 3.764 23.74 0 28.388 0a8.41 8.41 0 0 1 6.138 2.652A16.78 16.78 0 0 0 39.87.61a8.44 8.44 0 0 1-3.699 4.654c1.702-.2 3.324-.655 4.83-1.32a17.069 17.069 0 0 1-4.196 4.354" fill="#cbc7c2" fill-rule="evenodd"/></symbol><symbol viewBox="0 0.5 48.619 34.196" id="youtube" xmlns="http://www.w3.org/2000/svg"><title>youtube icon</title><path fill="#949494" d="M48.134 7.877s-.475-3.35-1.932-4.826c-1.85-1.937-3.922-1.946-4.872-2.06C34.526.5 24.32.5 24.32.5h-.021S14.094.5 7.29.992c-.95.113-3.021.123-4.872 2.06C.96 4.528.486 7.878.486 7.878S0 11.812 0 15.746v3.689c0 3.935.486 7.869.486 7.869s.474 3.351 1.932 4.826c1.85 1.937 4.279 1.875 5.361 2.078 3.89.373 16.53.488 16.53.488s10.217-.016 17.021-.508c.95-.113 3.022-.122 4.872-2.059 1.457-1.476 1.932-4.826 1.932-4.826s.485-3.935.485-7.869v-3.689c0-3.933-.485-7.868-.485-7.868zM19.29 23.904l-.002-13.661 13.138 6.854-13.136 6.807z"/></symbol></svg>